<?xml version="1.0" encoding="UTF-8"?>
<!-- Generator: Adobe Illustrator 12.0.0, SVG Export Plug-In  -->
<!DOCTYPE svg PUBLIC "-//W3C//DTD SVG 1.1//EN" "http://www.w3.org/Graphics/SVG/1.1/DTD/svg11.dtd" [
	<!ENTITY ns_flows "http://ns.adobe.com/Flows/1.0/">
	<!ENTITY ns_svg "http://www.w3.org/2000/svg">
	<!ENTITY ns_xlink "http://www.w3.org/1999/xlink">
]>
<svg version="1.1" xmlns="http://www.w3.org/2000/svg" xmlns:xlink="http://www.w3.org/1999/xlink" xmlns:a="http://ns.adobe.com/AdobeSVGViewerExtensions/3.0/" width="336" height="279" viewBox="-0.5 -0.311 336 279" enable-background="new -0.5 -0.311 336 279" xml:space="preserve">
<defs>
</defs>
<g>
	<defs>
		<path id="XMLID_4_" d="M0,3.689L0,3.689L0,3.689L0,3.689L0,3.689z M337.44,280.649 M0,3.689"/>
	</defs>
	<clipPath id="XMLID_1_">
		<use xlink:href="#XMLID_4_"/>
	</clipPath>
</g>
<line fill="none" stroke="#000000" stroke-width="0.12" stroke-linecap="square" stroke-miterlimit="10" x1="19.68" y1="240.21" x2="19.68" y2="167.85"/>
<polyline fill-rule="evenodd" clip-rule="evenodd" points="21.24,239.609 18.24,241.289 18.24,166.89 21.24,168.569 21.24,239.609   "/>
<line fill="none" stroke="#000000" stroke-width="0.12" stroke-linecap="square" stroke-miterlimit="10" x1="28.44" y1="235.17" x2="28.44" y2="172.89"/>
<polyline fill-rule="evenodd" clip-rule="evenodd" points="30,235.409 26.88,235.409 26.88,172.77 30,172.77 30,235.409 "/>
<line fill="none" stroke="#000000" stroke-width="0.12" stroke-linecap="square" stroke-miterlimit="10" x1="82.56" y1="276.689" x2="19.92" y2="240.569"/>
<polyline fill-rule="evenodd" clip-rule="evenodd" points="82.68,275.01 82.68,278.609 18.24,241.289 21.24,239.609 82.68,275.01   "/>
<line fill="none" stroke="#000000" stroke-width="0.12" stroke-linecap="square" stroke-miterlimit="10" x1="145.56" y1="240.569" x2="82.92" y2="276.689"/>
<polyline fill-rule="evenodd" clip-rule="evenodd" points="144.12,239.609 147.24,241.289 82.68,278.609 82.68,275.01   144.12,239.609 "/>
<line fill="none" stroke="#000000" stroke-width="0.12" stroke-linecap="square" stroke-miterlimit="10" x1="136.8" y1="235.529" x2="82.92" y2="266.609"/>
<polyline fill-rule="evenodd" clip-rule="evenodd" points="136.2,234.09 137.76,236.729 83.4,268.05 81.96,265.409 136.2,234.09 "/>
<line fill="none" stroke="#000000" stroke-width="0.12" stroke-linecap="square" stroke-miterlimit="10" x1="145.68" y1="167.85" x2="145.68" y2="240.21"/>
<polyline fill-rule="evenodd" clip-rule="evenodd" points="144.12,168.569 145.68,167.729 147.24,168.569 147.24,241.289   144.12,239.609 144.12,168.569 "/>
<line fill="none" stroke="#000000" stroke-width="0.12" stroke-linecap="square" stroke-miterlimit="10" x1="82.92" y1="131.489" x2="145.56" y2="167.489"/>
<polyline fill-rule="evenodd" clip-rule="evenodd" points="82.68,133.049 82.68,131.37 84.24,130.41 145.68,165.93 145.68,167.729   144.12,168.569 82.68,133.049 "/>
<line fill="none" stroke="#000000" stroke-width="0.12" stroke-linecap="square" stroke-miterlimit="10" x1="82.92" y1="141.569" x2="136.8" y2="172.529"/>
<polyline fill-rule="evenodd" clip-rule="evenodd" points="81.96,142.77 83.4,140.13 137.76,171.449 136.2,174.09 81.96,142.77 "/>
<line fill="none" stroke="#000000" stroke-width="0.12" stroke-linecap="square" stroke-miterlimit="10" x1="19.92" y1="167.489" x2="82.56" y2="131.489"/>
<polyline fill-rule="evenodd" clip-rule="evenodd" points="21.24,168.569 18.24,166.89 81.12,130.41 82.68,131.37 82.68,133.049   21.24,168.569 "/>
<line fill="none" stroke="#000000" stroke-width="0.12" stroke-linecap="square" stroke-miterlimit="10" x1="82.68" y1="58.77" x2="82.68" y2="131.129"/>
<polyline fill-rule="evenodd" clip-rule="evenodd" points="81.12,57.81 84.24,59.489 84.24,130.41 82.68,131.37 81.12,130.41   81.12,57.81 "/>
<text transform="matrix(1 0 0 1 191.04 147.6895)" font-family="'Arial'" font-size="45">O</text>
<line fill="none" stroke="#000000" stroke-width="0.12" stroke-linecap="square" stroke-miterlimit="10" x1="192.6" y1="140.729" x2="145.92" y2="167.489"/>
<polyline fill-rule="evenodd" clip-rule="evenodd" points="192.12,139.169 193.56,141.81 147.24,168.569 145.68,167.729   145.68,165.93 192.12,139.169 "/>
<text transform="matrix(1 0 0 1 2.1602 38.6094)" font-family="'Arial'" font-size="45">O</text>
<line fill="none" stroke="#000000" stroke-width="0.12" stroke-linecap="square" stroke-miterlimit="10" x1="33.24" y1="35.25" x2="82.56" y2="63.449"/>
<polyline fill-rule="evenodd" clip-rule="evenodd" points="32.4,36.33 33.84,33.689 83.4,62.37 81.96,65.009 32.4,36.33 "/>
<line fill="none" stroke="#000000" stroke-width="0.12" stroke-linecap="square" stroke-miterlimit="10" x1="37.68" y1="27.689" x2="86.88" y2="55.89"/>
<polyline fill-rule="evenodd" clip-rule="evenodd" points="36.72,28.77 38.28,26.129 87.84,54.81 86.28,57.449 36.72,28.77 "/>
<text transform="matrix(1 0 0 1 128.04 38.6094)" font-family="'Arial'" font-size="45">OH</text>
<line fill="none" stroke="#000000" stroke-width="0.12" stroke-linecap="square" stroke-miterlimit="10" x1="129.6" y1="31.649" x2="82.92" y2="58.41"/>
<polyline fill-rule="evenodd" clip-rule="evenodd" points="129.12,30.089 130.56,32.729 84.24,59.489 81.12,57.81 129.12,30.089 "/>
<line fill="none" stroke="#000000" stroke-width="0.12" stroke-linecap="square" stroke-miterlimit="10" x1="271.44" y1="167.489" x2="224.4" y2="140.489"/>
<polyline fill-rule="evenodd" clip-rule="evenodd" points="271.56,165.93 271.56,169.409 223.44,141.689 225,139.049 271.56,165.93   "/>
<line fill="none" stroke="#000000" stroke-width="0.12" stroke-linecap="square" stroke-miterlimit="10" x1="334.44" y1="131.489" x2="271.8" y2="167.489"/>
<polyline fill-rule="evenodd" clip-rule="evenodd" points="333.84,130.049 334.56,131.37 335.28,132.689 271.56,169.409   271.56,165.93 333.84,130.049 "/>
<text transform="matrix(1 0 0 1 254.04 256.7695)" font-family="'Arial'" font-size="45">O</text>
<line fill="none" stroke="#000000" stroke-width="0.12" stroke-linecap="square" stroke-miterlimit="10" x1="276" y1="221.729" x2="276" y2="165.329"/>
<polyline fill-rule="evenodd" clip-rule="evenodd" points="277.44,221.97 274.44,221.97 274.44,165.209 277.44,165.209   277.44,221.97 "/>
<line fill="none" stroke="#000000" stroke-width="0.12" stroke-linecap="square" stroke-miterlimit="10" x1="267.24" y1="221.729" x2="267.24" y2="165.329"/>
<polyline fill-rule="evenodd" clip-rule="evenodd" points="268.8,221.97 265.68,221.97 265.68,165.209 268.8,165.209 268.8,221.97   "/>
</svg>