<?xml version="1.0" ?><svg height="512" preserveAspectRatio="xMidYMid" viewBox="0 0 512 512" width="512" xmlns="http://www.w3.org/2000/svg" xmlns:xlink="http://www.w3.org/1999/xlink"><defs><style>
      .cls-1 {
        fill: #000;
        fill-rule: evenodd;
      }
    </style></defs><path class="cls-1" d="M256.000,512.000 C114.615,512.000 0.000,397.385 0.000,256.000 C0.000,114.615 114.615,0.000 256.000,0.000 C397.385,0.000 512.000,114.615 512.000,256.000 C512.000,397.385 397.385,512.000 256.000,512.000 ZM108.159,344.493 L191.319,265.831 L108.159,197.002 L108.159,344.493 ZM403.839,147.838 L108.159,147.838 L108.159,177.337 L255.999,305.162 L403.839,177.337 L403.839,147.838 ZM403.839,197.002 L320.679,265.831 L403.839,344.493 L403.839,197.002 ZM311.439,275.663 L255.999,324.827 L200.559,275.663 L108.159,364.158 L403.839,364.158 L311.439,275.663 Z"/></svg>