<?xml version="1.0" ?><svg height="512" preserveAspectRatio="xMidYMid" viewBox="0 0 512 512" width="512" xmlns="http://www.w3.org/2000/svg" xmlns:xlink="http://www.w3.org/1999/xlink"><defs><style>
      .cls-1 {
        fill: #000;
        fill-rule: evenodd;
      }
    </style></defs><path class="cls-1" d="M256.000,512.000 C114.615,512.000 0.000,397.385 0.000,256.000 C0.000,114.615 114.615,0.000 256.000,0.000 C397.385,0.000 512.000,114.615 512.000,256.000 C512.000,397.385 397.385,512.000 256.000,512.000 ZM306.278,148.156 L347.971,148.156 L347.971,99.178 L296.872,99.178 L296.872,99.399 C216.915,101.427 200.489,133.790 199.066,167.788 L198.914,167.788 L198.914,207.099 L158.072,207.099 L158.072,256.076 L198.914,256.076 L198.914,412.822 L280.566,412.822 L280.566,256.076 L341.816,256.076 L353.928,207.099 L280.566,207.099 L280.566,171.607 C280.566,160.169 291.149,148.156 306.278,148.156 Z"/></svg>