<?xml version="1.0" ?><svg height="512" preserveAspectRatio="xMidYMid" viewBox="0 0 512 512" width="512" xmlns="http://www.w3.org/2000/svg" xmlns:xlink="http://www.w3.org/1999/xlink"><defs><style>
      .cls-1 {
        fill: #000;
        fill-rule: evenodd;
      }
    </style></defs><path class="cls-1" d="M256.000,512.000 C114.615,512.000 0.000,397.385 0.000,256.000 C0.000,114.615 114.615,0.000 256.000,0.000 C397.385,0.000 512.000,114.615 512.000,256.000 C512.000,397.385 397.385,512.000 256.000,512.000 ZM202.367,127.977 C172.093,127.977 143.601,155.924 143.601,186.282 C143.601,217.308 164.234,243.209 195.031,243.209 C197.172,243.209 199.250,243.594 201.289,243.424 C199.297,247.799 197.867,252.942 197.867,258.049 C197.867,266.674 201.921,273.772 207.054,279.477 C203.180,279.477 199.438,279.665 195.351,279.665 C157.859,279.665 128.000,306.977 128.000,335.281 C128.000,363.147 160.632,384.022 198.132,384.022 C240.875,384.022 263.984,352.888 263.984,325.013 C263.984,302.674 258.711,289.290 240.875,274.870 C234.773,269.941 223.101,257.924 223.101,250.870 C223.101,242.602 225.172,238.522 236.062,228.799 C247.226,218.825 255.882,205.978 255.882,189.665 C255.882,170.254 247.562,155.406 233.367,146.263 L254.773,146.263 L269.883,127.977 C269.883,127.977 219.242,127.977 202.367,127.977 ZM384.000,173.692 L344.000,173.692 L344.000,128.263 L328.000,128.263 L328.000,173.692 L288.000,173.692 L288.000,192.263 L328.000,192.263 L328.000,237.692 L344.000,237.692 L344.000,192.263 L384.000,192.263 L384.000,173.692 ZM204.804,236.210 C187.406,235.620 170.875,213.969 167.875,187.861 C164.867,161.754 176.531,141.781 193.921,142.370 C211.320,142.960 228.601,163.915 231.609,190.013 C234.609,216.129 222.187,236.808 204.804,236.210 ZM246.296,320.209 C246.828,322.799 247.125,325.459 247.125,328.174 C247.125,350.692 234.421,366.004 197.992,366.004 C172.078,366.004 153.359,349.540 153.359,327.022 C153.359,304.950 176.578,286.576 202.492,286.888 C208.539,286.968 214.172,288.075 219.288,289.978 C233.359,301.156 243.446,307.468 246.296,320.209 Z"/></svg>