<?xml version="1.0" ?><svg height="512" preserveAspectRatio="xMidYMid" viewBox="0 0 512 512" width="512" xmlns="http://www.w3.org/2000/svg" xmlns:xlink="http://www.w3.org/1999/xlink"><defs><style>
      .cls-1 {
        fill: #000;
        fill-rule: evenodd;
      }
    </style></defs><path class="cls-1" d="M256.000,512.000 C114.615,512.000 0.000,397.385 0.000,256.000 C0.000,114.615 114.615,0.000 256.000,0.000 C397.385,0.000 512.000,114.615 512.000,256.000 C512.000,397.385 397.385,512.000 256.000,512.000 ZM376.711,133.683 C369.273,139.549 352.195,148.067 343.773,148.067 C343.773,148.067 343.773,148.077 343.773,148.086 C334.156,135.721 320.617,128.000 305.602,128.000 C276.437,128.000 252.789,157.106 252.789,192.990 C252.789,197.972 253.257,202.837 254.125,207.500 L254.117,207.500 C214.554,206.221 171.288,181.817 145.242,140.048 C129.226,174.164 143.085,212.106 161.258,225.933 C155.039,226.510 143.586,225.048 138.195,218.577 C137.836,241.221 146.680,271.221 178.937,282.106 C172.727,286.220 161.726,285.038 156.946,284.164 C158.624,303.279 180.375,328.270 204.156,328.270 C195.680,340.336 163.789,362.221 128.000,355.260 C152.305,373.462 180.633,384.000 210.617,384.000 C295.820,384.000 361.992,299.010 358.430,194.163 C358.414,194.047 358.414,193.933 358.406,193.808 C358.414,193.539 358.430,193.269 358.430,192.990 C358.430,192.664 358.406,192.355 358.398,192.039 C366.156,185.509 376.562,173.961 384.000,158.759 C379.687,161.682 366.750,167.538 354.711,168.991 C362.438,163.855 373.882,147.048 376.711,133.683 Z"/></svg>